<svg width="83" height="82" viewBox="0 0 83 82" fill="none" xmlns="http://www.w3.org/2000/svg">
<path d="M41.6082 0C43.7901 0 45.8017 1.2397 47.5662 3.3291C49.3326 5.42104 50.9014 8.41898 52.2087 12.0791C54.8249 19.4041 56.4333 29.4911 56.4333 40.6084C56.4333 51.7257 54.8249 61.8127 52.2087 69.1377C50.9014 72.798 49.3327 75.7957 47.5662 77.8877C45.8016 79.9773 43.7902 81.2168 41.6082 81.2168C39.4262 81.2167 37.4146 79.9772 35.6501 77.8877C33.8837 75.7957 32.3148 72.7978 31.0076 69.1377C28.3914 61.8127 26.783 51.7256 26.783 40.6084C26.783 29.4911 28.3914 19.4041 31.0076 12.0791C32.3149 8.41888 33.8836 5.42108 35.6501 3.3291C37.4146 1.2396 39.4262 0.000133649 41.6082 0ZM41.238 80.7041L41.6082 80.7168C41.3612 80.7168 41.1157 80.6996 40.8718 80.665C40.9935 80.6823 41.1156 80.6954 41.238 80.7041ZM42.1296 80.6875C42.198 80.6807 42.2666 80.6765 42.3347 80.667L42.3455 80.665C42.2738 80.6752 42.2016 80.6803 42.1296 80.6875ZM40.697 1.6416C33.2889 1.6416 27.283 19.0878 27.283 40.6084C27.283 62.129 33.2889 79.5752 40.697 79.5752C48.1051 79.575 54.1101 62.1289 54.1101 40.6084C54.1101 19.0879 48.1051 1.64178 40.697 1.6416Z" fill="white"/>
<path d="M75.7798 62.1787C74.7318 64.1376 72.7213 65.3489 70.0999 65.9229C67.4773 66.497 64.1838 66.4488 60.4578 65.8402C53.0019 64.6221 43.7012 61.1415 34.3089 55.7032C24.9165 50.2646 17.1713 43.8749 12.2468 37.9242C9.78602 34.9505 8.01184 32.0642 7.09863 29.4428C6.18578 26.8222 6.11497 24.4061 7.16282 22.4469C8.2109 20.4876 10.2222 19.2763 12.8441 18.7023C15.4666 18.1283 18.7593 18.1759 22.4853 18.7845C29.9413 20.0026 39.2426 23.4835 48.635 28.9221C58.0272 34.3606 65.7719 40.75 70.6963 46.7005C73.157 49.6743 74.9322 52.561 75.8453 55.1824C76.758 57.8029 76.8278 60.2196 75.7798 62.1787ZM7.29982 23.3495L7.28293 23.3894C7.27446 23.4121 7.26853 23.4358 7.26029 23.4586C7.27337 23.4222 7.28603 23.3856 7.29982 23.3495ZM7.1893 23.6679C7.18043 23.6956 7.16902 23.7225 7.1606 23.7505C7.15515 23.7686 7.15189 23.7874 7.14663 23.8056C7.16007 23.7593 7.17479 23.7136 7.1893 23.6679ZM74.8237 60.5458C78.406 53.849 66.5753 39.8877 48.3992 29.363C30.2228 18.8382 12.5838 15.7354 9.00145 22.4322C5.41959 29.1291 17.2503 43.0895 35.4264 53.6141C53.6024 64.1386 71.241 67.2422 74.8237 60.5458ZM75.1566 62.2554C75.0908 62.3606 75.0218 62.4636 74.9494 62.5641L75.1574 62.2559L75.3471 61.9282L75.1566 62.2554Z" fill="white"/>
<path d="M7.58872 62.1711C6.5139 60.2272 6.5507 57.8101 7.42758 55.177C8.30483 52.5429 10.0401 49.6319 12.4601 46.6234C17.3029 40.6031 24.9603 34.1033 34.2781 28.5309C43.5959 22.9585 52.8493 19.3453 60.2884 18.0206C64.0058 17.3587 67.2978 17.2633 69.928 17.7997C72.5575 18.3361 74.5845 19.5187 75.6593 21.4628C76.7342 23.4068 76.6974 25.8237 75.8205 28.4569C74.9432 31.091 73.208 34.002 70.788 37.0105C65.9451 43.0308 58.2878 49.5307 48.97 55.103C39.6521 60.6753 30.3987 64.2886 22.9597 65.6133C19.2423 66.2752 15.9502 66.3706 13.32 65.8342C10.6907 65.2978 8.66356 64.1151 7.58872 62.1711ZM9.42718 62.16C13.1013 68.804 30.6966 65.4487 48.728 54.6654C66.7596 43.882 78.3994 29.7537 74.7261 23.1092C71.0524 16.4647 53.4558 19.8198 35.424 30.6034C17.3923 41.3869 5.75345 55.5156 9.42718 62.16ZM34.52 28.9685L33.6683 29.4835C33.6241 29.5105 33.5806 29.5387 33.5365 29.5657C33.8624 29.3659 34.1898 29.166 34.52 28.9685Z" fill="white"/>
<circle cx="50.3196" cy="71.5595" r="3.22009" fill="white"/>
<circle cx="50.1854" cy="71.6939" r="1.74421" fill="white"/>
<circle cx="8.56437" cy="28.8338" r="3.22009" fill="white"/>
<circle cx="8.45299" cy="28.6992" r="1.74421" fill="white"/>
<circle cx="42.0819" cy="41.6909" r="6.44018" fill="white"/>
<circle cx="37.9007" cy="40.207" r="0.5" fill="black" stroke="black" stroke-width="0.835451"/>
<circle cx="42.0919" cy="37.5098" r="0.5" fill="black" stroke="black" stroke-width="0.835451"/>
<circle cx="42.0919" cy="40.207" r="0.5" fill="black" stroke="black" stroke-width="0.835451"/>
<circle cx="42.0919" cy="43.0726" r="0.5" fill="black" stroke="black" stroke-width="0.835451"/>
<circle cx="42.0919" cy="45.7691" r="0.5" fill="black" stroke="black" stroke-width="0.835451"/>
<circle cx="37.9007" cy="43.241" r="0.5" fill="black" stroke="black" stroke-width="0.835451"/>
<circle cx="46.8071" cy="41.3866" r="0.5" fill="black" stroke="black" stroke-width="0.835451"/>
<line y1="-0.25" x2="5.84843" y2="-0.25" transform="matrix(0.719504 0.694488 -0.719504 0.694488 42.8146 37.3975)" stroke="black" stroke-width="0.5"/>
<line y1="-0.25" x2="4.32164" y2="-0.25" transform="matrix(0.964104 0.265523 -0.283481 0.958978 42.617 40.3801)" stroke="black" stroke-width="0.5"/>
<line x1="42.8592" y1="42.9394" x2="46.0173" y2="41.7256" stroke="black" stroke-width="0.5"/>
<path d="M42.9001 46.0051L46.6431 42.2271" stroke="black" stroke-width="0.5"/>
<line y1="-0.25" x2="3.80838" y2="-0.25" transform="matrix(0.845956 -0.533253 0.560374 0.828239 38.3435 39.6183)" stroke="black" stroke-width="0.5"/>
<line y1="-0.25" x2="3.23148" y2="-0.25" transform="matrix(0.99691 0.0785509 -0.0842723 0.996443 38.3435 40.1262)" stroke="black" stroke-width="0.5"/>
<line y1="-0.25" x2="3.89615" y2="-0.25" transform="matrix(0.810025 0.586396 -0.613566 0.789644 38.3435 40.6976)" stroke="black" stroke-width="0.5"/>
<line y1="-0.25" x2="6.05811" y2="-0.25" transform="matrix(0.618628 0.785684 -0.806312 0.591491 38.0806 41.2051)" stroke="black" stroke-width="0.5"/>
<line y1="-0.25" x2="6.46464" y2="-0.25" transform="matrix(0.579726 -0.814812 0.833508 0.552507 38.0806 43.1724)" stroke="black" stroke-width="0.5"/>
<line y1="-0.25" x2="4.10167" y2="-0.25" transform="matrix(0.785467 -0.618904 0.645754 0.763545 38.3435 43.4263)" stroke="black" stroke-width="0.5"/>
<line y1="-0.25" x2="3.1787" y2="-0.25" transform="matrix(0.9928 -0.119785 0.12843 0.991719 38.4092 43.7439)" stroke="black" stroke-width="0.5"/>
<line y1="-0.25" x2="3.78764" y2="-0.25" transform="matrix(0.833229 0.552928 -0.580148 0.814511 38.3435 44.0611)" stroke="black" stroke-width="0.5"/>
</svg>
